<?xml version="1.0" encoding="UTF-8"?>
<svg width="41px" height="41px" viewBox="0 0 41 41" version="1.1" xmlns="http://www.w3.org/2000/svg" xmlns:xlink="http://www.w3.org/1999/xlink">
    <!-- Generator: Sketch 63.1 (92452) - https://sketch.com -->
    <title>logo_data-story_edge</title>
    <desc>Created with Sketch.</desc>
    <g id="Desktop---UI" stroke="none" stroke-width="1" fill="none" fill-rule="evenodd">
        <g id="Assets" transform="translate(-946.000000, -3201.000000)">
            <g id="logo_data-story_edge" transform="translate(946.176471, 3201.588235)">
                <rect id="Rectangle" fill="#FFFFFF" x="0" y="0" width="40" height="40"></rect>
                <rect id="Rectangle-Copy" fill="#FFFFFF" fill-rule="nonzero" x="3.83333333" y="13" width="33.3333333" height="14.1666667"></rect>
                <path d="M25.1668612,21.7537969 L25.1668612,17.71832 L26.8898738,17.71832 L26.8898738,18.2624293 L25.7449773,18.2624293 L25.7449773,19.4470004 L26.7425109,19.4470004 L26.7425109,19.9911097 L25.7449773,19.9911097 L25.7449773,21.1756808 L26.8898738,21.1756808 L26.8898738,21.7537969 L25.1668612,21.7537969 Z M27.9627193,21.7537969 L27.9627193,17.71832 L28.8185578,17.71832 C29.1510707,17.71832 29.4032854,17.809004 29.5752097,17.9903747 C29.747134,18.1717453 29.8330948,18.4286832 29.8330948,18.7611961 L29.8330948,20.648575 C29.8330948,21.0264305 29.7414662,21.3050948 29.5582063,21.4845762 C29.3749464,21.6640575 29.1113961,21.7537969 28.7675475,21.7537969 L27.9627193,21.7537969 Z M28.5408354,18.2624293 L28.5408354,21.2096876 L28.8072222,21.2096876 C28.9697001,21.2096876 29.0849443,21.1690688 29.1529583,21.0878298 C29.2209723,21.0065909 29.2549787,20.8790666 29.2549787,20.705253 L29.2549787,18.7611961 C29.2549787,18.6024968 29.2228615,18.4796955 29.1586261,18.3927888 C29.0943906,18.305882 28.9772572,18.2624293 28.8072222,18.2624293 L28.5408354,18.2624293 Z M31.0419676,18.6705112 C31.0419676,18.5080333 31.0703064,18.3644504 31.1269847,18.2397581 C31.183663,18.1150657 31.259233,18.011157 31.3536969,17.9280288 C31.4443822,17.8486791 31.5473463,17.7882232 31.6625922,17.7466591 C31.7778382,17.705095 31.894027,17.6843132 32.0111622,17.6843132 C32.1282974,17.6843132 32.2444863,17.705095 32.3597322,17.7466591 C32.4749781,17.7882232 32.5798315,17.8486791 32.6742953,17.9280288 C32.7649807,18.011157 32.8386614,18.1150657 32.8953397,18.2397581 C32.952018,18.3644504 32.9803568,18.5080333 32.9803568,18.6705112 L32.9803568,18.8745522 L32.4022407,18.8745522 L32.4022407,18.6705112 C32.4022407,18.5307047 32.3635111,18.4277406 32.2860507,18.3616159 C32.2085903,18.2954911 32.1169618,18.2624293 32.0111622,18.2624293 C31.9053627,18.2624293 31.8137341,18.2954911 31.7362737,18.3616159 C31.6588133,18.4277406 31.6200837,18.5307047 31.6200837,18.6705112 L31.6200837,20.8016057 C31.6200837,20.9414122 31.6588133,21.0443763 31.7362737,21.1105011 C31.8137341,21.1766258 31.9053627,21.2096876 32.0111622,21.2096876 C32.1169618,21.2096876 32.2085903,21.1766258 32.2860507,21.1105011 C32.3635111,21.0443763 32.4022407,20.9414122 32.4022407,20.8016057 L32.4022407,20.0421199 L31.9431486,20.0421199 L31.9431486,19.5320175 L32.9803568,19.5320175 L32.9803568,20.8016057 C32.9803568,20.9716407 32.952018,21.1171129 32.8953397,21.2380267 C32.8386614,21.3589404 32.7649807,21.4590706 32.6742953,21.5384203 C32.5798315,21.6215485 32.4749781,21.6838937 32.3597322,21.7254578 C32.2444863,21.767022 32.1282974,21.7878037 32.0111622,21.7878037 C31.894027,21.7878037 31.7778382,21.767022 31.6625922,21.7254578 C31.5473463,21.6838937 31.4443822,21.6215485 31.3536969,21.5384203 C31.259233,21.4590706 31.183663,21.3589404 31.1269847,21.2380267 C31.0703064,21.1171129 31.0419676,20.9716407 31.0419676,20.8016057 L31.0419676,18.6705112 Z M34.1892296,21.7537969 L34.1892296,17.71832 L35.9122422,17.71832 L35.9122422,18.2624293 L34.7673457,18.2624293 L34.7673457,19.4470004 L35.7648793,19.4470004 L35.7648793,19.9911097 L34.7673457,19.9911097 L34.7673457,21.1756808 L35.9122422,21.1756808 L35.9122422,21.7537969 L34.1892296,21.7537969 Z" id="EDGE" fill="#0C0C0C"></path>
                <path d="M3.27205462,21.7537969 L3.27205462,17.71832 L4.1278931,17.71832 C4.46040597,17.71832 4.71262075,17.809004 4.88454501,17.9903747 C5.05646927,18.1717453 5.14243012,18.4286832 5.14243012,18.7611961 L5.14243012,20.648575 C5.14243012,21.0264305 5.05080153,21.3050948 4.8675416,21.4845762 C4.68428167,21.6640575 4.42073139,21.7537969 4.07688286,21.7537969 L3.27205462,21.7537969 Z M3.85017068,18.2624293 L3.85017068,21.2096876 L4.11655749,21.2096876 C4.27903537,21.2096876 4.39427958,21.1690688 4.46229357,21.0878298 C4.53030757,21.0065909 4.56431405,20.8790666 4.56431405,20.705253 L4.56431405,18.7611961 C4.56431405,18.6024968 4.53219682,18.4796955 4.46796138,18.3927888 C4.40372594,18.305882 4.28659248,18.2624293 4.11655749,18.2624293 L3.85017068,18.2624293 Z M8.25568527,17.71832 L8.25568527,20.8469481 C8.25568527,20.9791976 8.23206966,21.1010542 8.18483772,21.2125215 C8.13760578,21.3239889 8.07053743,21.4231745 7.98363066,21.5100813 C7.89672389,21.596988 7.79659367,21.665001 7.68323702,21.7141222 C7.56988036,21.7632435 7.4489684,21.7878037 7.32049752,21.7878037 C7.19202665,21.7878037 7.07205932,21.7632435 6.96059194,21.7141222 C6.84912456,21.665001 6.74993897,21.596988 6.6630322,21.5100813 C6.57612543,21.4231745 6.50811245,21.3239889 6.45899123,21.2125215 C6.40987002,21.1010542 6.38530978,20.9791976 6.38530978,20.8469481 L6.38530978,17.71832 L6.96342584,17.71832 L6.96342584,20.7902701 C6.96342584,20.9338552 6.99743233,21.0396532 7.06544632,21.1076672 C7.13346031,21.1756811 7.21847653,21.2096876 7.32049752,21.2096876 C7.42251852,21.2096876 7.50753473,21.1756811 7.57554873,21.1076672 C7.64356272,21.0396532 7.67756921,20.9338552 7.67756921,20.7902701 L7.67756921,17.71832 L8.25568527,17.71832 Z M10.076681,18.2624293 L10.076681,19.5206819 L10.4054137,19.5206819 C10.5074347,19.5206819 10.5886724,19.5065125 10.6491293,19.4781733 C10.7095861,19.4498342 10.7568174,19.4092153 10.7908244,19.3563155 C10.8210528,19.3034158 10.8418346,19.2382367 10.8531702,19.1607763 C10.8645059,19.0833159 10.8701736,18.9935766 10.8701736,18.8915556 C10.8701736,18.7895346 10.8645059,18.6997952 10.8531702,18.6223349 C10.8418346,18.5448745 10.8191636,18.4778061 10.7851566,18.4211278 C10.713364,18.3153283 10.5773381,18.2624293 10.3770746,18.2624293 L10.076681,18.2624293 Z M9.49856493,21.7537969 L9.49856493,17.71832 L10.4280849,17.71832 C11.1082248,17.71832 11.4482897,18.1131731 11.4482897,18.9028912 C11.4482897,19.1409402 11.4114493,19.3430898 11.3377675,19.5093463 C11.2640857,19.6756027 11.1346721,19.8097394 10.9495229,19.9117604 L11.5729814,21.7537969 L10.9608585,21.7537969 L10.4224171,20.0307843 L10.076681,20.0307843 L10.076681,21.7537969 L9.49856493,21.7537969 Z M12.6118201,21.7537969 L12.6118201,17.71832 L13.456323,17.71832 C13.6414722,17.71832 13.7992245,17.7466588 13.9295846,17.8033371 C14.0599448,17.8600154 14.1666874,17.9355854 14.2498156,18.0300493 C14.3329438,18.1245132 14.3924552,18.233145 14.4283514,18.355948 C14.4642477,18.4787511 14.4821956,18.6062754 14.4821956,18.7385249 L14.4821956,18.8858878 C14.4821956,18.9954659 14.473694,19.0880391 14.4566905,19.1636102 C14.439687,19.2391813 14.4141821,19.305305 14.3801751,19.3619834 C14.3159397,19.4677829 14.2176987,19.5584669 14.0854493,19.634038 C14.2214773,19.6982734 14.3216075,19.7927359 14.3858429,19.9174282 C14.4500784,20.0421205 14.4821956,20.212153 14.4821956,20.4275306 L14.4821956,20.6542428 C14.4821956,21.009427 14.3962347,21.2814789 14.2243105,21.4704066 C14.0523862,21.6593344 13.7775004,21.7537969 13.3996449,21.7537969 L12.6118201,21.7537969 Z M13.1899362,19.8834214 L13.1899362,21.1756808 L13.4393196,21.1756808 C13.5564548,21.1756808 13.6480834,21.1586776 13.7142081,21.1246706 C13.7803328,21.0906636 13.8303979,21.0434323 13.8644049,20.9829755 C13.8984119,20.9225186 13.9191936,20.8507271 13.9267507,20.7675989 C13.9343079,20.6844707 13.9380864,20.5937867 13.9380864,20.4955443 C13.9380864,20.3935233 13.9324186,20.3047286 13.9210829,20.2291574 C13.9097473,20.1535863 13.8870763,20.0893519 13.8530693,20.0364521 C13.8152837,19.9835523 13.764274,19.9448227 13.7000386,19.9202621 C13.6358031,19.8957015 13.5507869,19.8834214 13.4449874,19.8834214 L13.1899362,19.8834214 Z M13.1899362,18.2624293 L13.1899362,19.373319 L13.4506552,19.373319 C13.6433615,19.373319 13.7727751,19.3251431 13.8388998,19.2287899 C13.9050245,19.1324368 13.9380864,18.9916877 13.9380864,18.8065385 C13.9380864,18.6251679 13.901246,18.4891419 13.8275642,18.3984566 C13.7538823,18.3077713 13.6206903,18.2624293 13.4279839,18.2624293 L13.1899362,18.2624293 Z M16.8246293,20.3425135 L16.5412391,18.88022 L16.5299035,18.88022 L16.2465133,20.3425135 L16.8246293,20.3425135 Z M15.3963426,21.7537969 L16.2975235,17.71832 L16.7792869,17.71832 L17.6804678,21.7537969 L17.1023518,21.7537969 L16.9323176,20.8866228 L16.1444928,20.8866228 L15.9744586,21.7537969 L15.3963426,21.7537969 Z M18.6399572,21.7537969 L18.6399572,17.71832 L19.1954021,17.71832 L20.068244,20.1498082 L20.0795796,20.1498082 L20.0795796,17.71832 L20.6576957,17.71832 L20.6576957,21.7537969 L20.1135864,21.7537969 L19.2294089,19.3279765 L19.2180733,19.3279765 L19.2180733,21.7537969 L18.6399572,21.7537969 Z" id="DURBAN" fill="#0C0C0C"></path>
                <path d="M3.6436452,16.7769986 L3.6436452,14.5769588 L3.22220899,14.5769588 L3.22220899,14.2340954 L4.42937372,14.2340954 L4.42937372,14.5769588 L4.00793751,14.5769588 L4.00793751,16.7769986 L3.6436452,16.7769986 Z M5.12581492,16.7769986 L5.12581492,14.2340954 L5.49010723,14.2340954 L5.49010723,15.3234009 L5.94011538,15.3234009 L5.94011538,14.2340954 L6.3044077,14.2340954 L6.3044077,16.7769986 L5.94011538,16.7769986 L5.94011538,15.6448353 L5.49010723,15.6448353 L5.49010723,16.7769986 L5.12581492,16.7769986 Z M7.18299505,16.7769986 L7.18299505,14.2340954 L8.268729,14.2340954 L8.268729,14.5769588 L7.54728736,14.5769588 L7.54728736,15.3234009 L8.17587018,15.3234009 L8.17587018,15.6662642 L7.54728736,15.6662642 L7.54728736,16.4127063 L8.268729,16.4127063 L8.268729,16.7769986 L7.18299505,16.7769986 Z" id="THE" fill="#0C0C0C"></path>
                <g id="Group" transform="translate(23.885472, 13.408925)" fill-rule="nonzero" stroke-width="0.931693897">
                    <polyline id="Path-2" stroke="#626E7C" points="0 3.18328748 0 8.42957274e-15 3.10564632 8.42957274e-15"></polyline>
                    <polyline id="Path-2-Copy-2" stroke="#004BAA" transform="translate(1.552823, 10.753300) scale(1, -1) translate(-1.552823, -10.753300) " points="0 12.3449441 0 9.16165666 3.10564632 9.16165666"></polyline>
                    <polyline id="Path-2-Copy" stroke="#FFAE3C" transform="translate(11.568533, 1.591644) scale(-1, 1) translate(-11.568533, -1.591644) " points="10.0157094 3.18328748 10.0157094 8.42957274e-15 13.1213557 8.42957274e-15"></polyline>
                    <polyline id="Path-2-Copy-3" stroke="#FF1A00" transform="translate(11.568533, 10.753300) scale(-1, -1) translate(-11.568533, -10.753300) " points="10.0157094 12.3449441 10.0157094 9.16165666 13.1213557 9.16165666"></polyline>
                </g>
            </g>
        </g>
    </g>
</svg>