<?xml version="1.0" encoding="UTF-8"?>
<svg width="24px" height="24px" viewBox="0 0 24 24" version="1.1" xmlns="http://www.w3.org/2000/svg" xmlns:xlink="http://www.w3.org/1999/xlink">
    <!-- Generator: sketchtool 51.3 (57544) - http://www.bohemiancoding.com/sketch -->
    <title>7EF81D4C-2948-4F7A-9665-5119F09F5576</title>
    <desc>Created with sketchtool.</desc>
    <defs></defs>
    <g id="UI" stroke="none" stroke-width="1" fill="none" fill-rule="evenodd">
        <g id="Maps_Landing-Page-V1" transform="translate(-1160.000000, -1008.000000)">
            <g id="Group-4" transform="translate(0.000000, 1000.000000)">
                <g id="instagram" transform="translate(1160.000000, 8.000000)">
                    <rect id="Rectangle" x="0" y="0" width="24" height="24"></rect>
                    <circle id="Oval" fill="#FFFFFF" cx="12" cy="12" r="12"></circle>
                    <g transform="translate(6.000000, 6.750000)" fill="#3A3A40" fill-rule="nonzero" id="Shape">
                        <path d="M6.00133854,2.92335156 C4.29871723,2.92335156 2.92537646,4.29699877 2.92537646,6 C2.92537646,7.70300123 4.29871723,9.07664844 6.00133854,9.07664844 C7.70395984,9.07664844 9.07730061,7.70300123 9.07730061,6 C9.07730061,4.29699877 7.70395984,2.92335156 6.00133854,2.92335156 Z M6.00133854,8.00022314 C4.90105968,8.00022314 4.00156163,7.10320205 4.00156163,6 C4.00156163,4.89679795 4.8983826,3.99977686 6.00133854,3.99977686 C7.10429448,3.99977686 8.00111545,4.89679795 8.00111545,6 C8.00111545,7.10320205 7.1016174,8.00022314 6.00133854,8.00022314 Z M9.92058003,2.79750084 C9.92058003,3.19647439 9.59933073,3.51511771 9.20312326,3.51511771 C8.80423871,3.51511771 8.48566648,3.19379672 8.48566648,2.79750084 C8.48566648,2.40120495 8.80691578,2.07988397 9.20312326,2.07988397 C9.59933073,2.07988397 9.92058003,2.40120495 9.92058003,2.79750084 Z M11.957836,3.52582841 C11.9123257,2.56454312 11.6928054,1.71304251 10.988734,1.01149169 C10.2873397,0.309940868 9.436029,0.0903715274 8.47495817,0.0421733794 C7.48443949,-0.0140577931 4.51556051,-0.0140577931 3.52504183,0.0421733794 C2.56664808,0.0876938525 1.71533742,0.307263193 1.01126603,1.00881401 C0.307194646,1.71036483 0.0903513664,2.56186545 0.042163971,3.52315073 C-0.014054657,4.51389044 -0.014054657,7.48343189 0.042163971,8.47417159 C0.0876742889,9.43545688 0.307194646,10.2869575 1.01126603,10.9885083 C1.71533742,11.6900591 2.563971,11.9096285 3.52504183,11.9578266 C4.51556051,12.0140578 7.48443949,12.0140578 8.47495817,11.9578266 C9.436029,11.9123061 10.2873397,11.6927368 10.988734,10.9885083 C11.6901283,10.2869575 11.9096486,9.43545688 11.957836,8.47417159 C12.0140547,7.48343189 12.0140547,4.51656811 11.957836,3.52582841 Z M10.678193,9.53720852 C10.4693809,10.0620328 10.0651422,10.4663617 9.53775795,10.677898 C8.74802008,10.991186 6.87406581,10.9188888 6.00133854,10.9188888 C5.12861127,10.9188888 3.25197992,10.9885083 2.46491913,10.677898 C1.94021194,10.4690394 1.53597323,10.0647105 1.3244841,9.53720852 C1.01126603,8.74729443 1.08354713,6.87292201 1.08354713,6 C1.08354713,5.12707799 1.01394311,3.25002789 1.3244841,2.46279148 C1.53329615,1.9379672 1.93753486,1.53363829 2.46491913,1.32210197 C3.254657,1.00881401 5.12861127,1.08111124 6.00133854,1.08111124 C6.87406581,1.08111124 8.75069716,1.01149169 9.53775795,1.32210197 C10.0624651,1.53096062 10.4667038,1.93528952 10.678193,2.46279148 C10.991411,3.25270557 10.9191299,5.12707799 10.9191299,6 C10.9191299,6.87292201 10.991411,8.74997211 10.678193,9.53720852 Z"></path>
                    </g>
                </g>
            </g>
        </g>
    </g>
</svg>