<?xml version="1.0" encoding="UTF-8"?>
<svg width="24px" height="24px" viewBox="0 0 24 24" version="1.1" xmlns="http://www.w3.org/2000/svg" xmlns:xlink="http://www.w3.org/1999/xlink">
    <!-- Generator: sketchtool 51.3 (57544) - http://www.bohemiancoding.com/sketch -->
    <title>AD4A1D51-EA0F-4893-AE4C-360F0D3F0758</title>
    <desc>Created with sketchtool.</desc>
    <defs></defs>
    <g id="UI" stroke="none" stroke-width="1" fill="none" fill-rule="evenodd">
        <g id="Maps_Landing-Page-V1" transform="translate(-1106.000000, -1008.000000)">
            <g id="Group-4" transform="translate(0.000000, 1000.000000)">
                <g id="twitter" transform="translate(1106.000000, 8.000000)">
                    <rect id="Rectangle" x="0" y="0" width="24" height="24"></rect>
                    <circle id="Oval" fill="#FFFFFF" cx="12" cy="12" r="12"></circle>
                    <path d="M16.6506267,9.18858088 C17.1360515,8.88225021 17.5085242,8.39651754 17.6833309,7.81789293 C17.2288335,8.10224154 16.7266004,8.30788019 16.1907506,8.4192087 C15.7631465,7.93702152 15.1519954,7.63636364 14.4756279,7.63636364 C13.1780243,7.63636364 12.1264947,8.74610324 12.1264947,10.1146639 C12.1264947,10.308957 12.1459924,10.4982863 12.1863324,10.6791065 C10.233876,10.5755781 8.5026173,9.5899308 7.34284205,8.08947776 C7.14046967,8.45679093 7.02482831,8.88225021 7.02482831,9.33607343 C7.02482831,10.1955012 7.43965807,10.9542369 8.07030687,11.3995509 C7.68505979,11.3867871 7.32267205,11.2740404 7.00533064,11.0896747 L7.00533064,11.120166 C7.00533064,12.3213793 7.81482015,13.3233359 8.89122605,13.5502475 C8.69356001,13.6083936 8.48648129,13.6374667 8.27133458,13.6374667 C8.12005955,13.6374667 7.97214618,13.6225756 7.82961149,13.5935026 C8.12812755,14.5777317 8.99611007,15.2953396 10.0247803,15.3144853 C9.21999712,15.97962 8.20679057,16.3752971 7.10618067,16.3752971 C6.91658262,16.3752971 6.72900158,16.3646606 6.54545455,16.3412604 C7.58555443,17.0439773 8.82063103,17.4545455 10.1478173,17.4545455 C14.4709216,17.4545455 16.8335014,13.6778853 16.8335014,10.402558 C16.8335014,10.294775 16.8321567,10.1877011 16.8274504,10.0820454 C17.2866542,9.73245965 17.6860203,9.2956548 18,8.79857655 C17.5784469,8.99570601 17.1252941,9.12901659 16.6506267,9.18858088 Z" id="Shape" fill="#3A3A40"></path>
                </g>
            </g>
        </g>
    </g>
</svg>