<?xml version="1.0" encoding="UTF-8"?>
<svg width="174px" height="44px" viewBox="0 0 174 44" version="1.1" xmlns="http://www.w3.org/2000/svg" xmlns:xlink="http://www.w3.org/1999/xlink">
    <!-- Generator: sketchtool 51.3 (57544) - http://www.bohemiancoding.com/sketch -->
    <title>2951C63C-D1AD-4723-B9E2-F59D23A95739</title>
    <desc>Created with sketchtool.</desc>
    <defs></defs>
    <g id="CKAN" stroke="none" stroke-width="1" fill="none" fill-rule="evenodd">
        <g id="Assets" transform="translate(-28.000000, -502.000000)">
            <g id="logo_header-nav_v2-copy-2" transform="translate(28.000000, 502.000000)">
                <g id="logo_header-nav_v2" transform="translate(15.000000, 15.000000)" fill-rule="nonzero" stroke="#0C0C0C">
                    <g id="Group">
                        <circle id="Oval" stroke-width="1.30841121" cx="7" cy="7" r="6.34579439"></circle>
                        <path d="M7,1 L7,13.3004695" id="Line" stroke-width="0.5" stroke-linecap="square"></path>
                        <path d="M5.984375,0.990610329 C4.51164448,2.79439155 3.77527922,4.69197144 3.77527922,6.68335 C3.77527922,8.67472857 4.74117455,10.8172914 6.67296521,13.1110385" id="Line-Copy" stroke-width="0.5" stroke-linecap="square"></path>
                        <path d="M1,4.5 L12,4.5" id="Line-2" stroke-width="0.5" stroke-linecap="square"></path>
                        <path d="M1,9.5 L13,9.5" id="Line-2" stroke-width="0.5" stroke-linecap="square"></path>
                        <path d="M1,7 L13,7" id="Line-2" stroke-width="0.5" stroke-linecap="square"></path>
                        <path d="M9.6357488,0.928954578 C8.14196727,2.78172193 7.3950765,4.70379489 7.3950765,6.69517345 C7.3950765,8.68655202 8.33351458,10.816356 10.2103907,13.0845854" id="Line-Copy" stroke-width="0.5" stroke-linecap="square" transform="translate(8.802734, 7.006770) scale(-1, 1) translate(-8.802734, -7.006770) "></path>
                    </g>
                </g>
                <text id="South-African-Cities" font-family="KohinoorBangla-Bold, Kohinoor Bangla" font-size="14" font-weight="bold" line-spacing="10" fill="#FF8430">
                    <tspan x="48" y="23">S</tspan>
                    <tspan x="57.184" y="24.568" font-family="KohinoorBangla-Regular, Kohinoor Bangla" font-weight="normal">outh African </tspan>
                    <tspan x="138.048" y="23">C</tspan>
                    <tspan x="147.484" y="24.568" font-family="KohinoorBangla-Regular, Kohinoor Bangla" font-weight="normal">ities</tspan>
                </text>
                <text id="Open-Data-Almanac" font-family="KohinoorBangla-Bold, Kohinoor Bangla" font-size="14" font-weight="bold" line-spacing="10" fill="#FF8430">
                    <tspan x="48" y="40">O</tspan>
                    <tspan x="58.584" y="41.568" font-family="KohinoorBangla-Regular, Kohinoor Bangla" font-weight="normal">pen</tspan>
                    <tspan x="80.886" y="40"> D</tspan>
                    <tspan x="95.432" y="41.568" font-family="KohinoorBangla-Regular, Kohinoor Bangla" font-weight="normal">ata </tspan>
                    <tspan x="118.896" y="40">A</tspan>
                    <tspan x="129.382" y="41.568" font-family="KohinoorBangla-Regular, Kohinoor Bangla" font-weight="normal">lmanac</tspan>
                </text>
                <g id="Group-2" fill="#FF8430" fill-rule="nonzero">
                    <path d="M22,14 C21.4477153,14 21,13.5522847 21,13 C21,12.4477153 21.4477153,12 22,12 C22.5522847,12 23,12.4477153 23,13 C23,13.5522847 22.5522847,14 22,14 Z M25.0534198,14.6055891 C24.545039,14.3897942 24.3078512,13.8027339 24.523646,13.2943531 C24.7394409,12.7859723 25.3265012,12.5487845 25.834882,12.7645794 C26.3432628,12.9803742 26.5804506,13.5674345 26.3646557,14.0758153 C26.1488609,14.5841961 25.5618006,14.8213839 25.0534198,14.6055891 Z M27.6568542,16.3431458 C27.26633,15.9526215 27.26633,15.3194565 27.6568542,14.9289322 C28.0473785,14.5384079 28.6805435,14.5384079 29.0710678,14.9289322 C29.4615921,15.3194565 29.4615921,15.9526215 29.0710678,16.3431458 C28.6805435,16.73367 28.0473785,16.73367 27.6568542,16.3431458 Z M29.3877319,18.9304557 C29.1808424,18.4183862 29.4282397,17.8355548 29.9403092,17.6286653 C30.4523787,17.4217757 31.0352101,17.669173 31.2420996,18.1812425 C31.4489892,18.693312 31.2015919,19.2761435 30.6895224,19.483033 C30.1774529,19.6899225 29.5946214,19.4425252 29.3877319,18.9304557 Z M30,22 C30,21.4477153 30.4477153,21 31,21 C31.5522847,21 32,21.4477153 32,22 C32,22.5522847 31.5522847,23 31,23 C30.4477153,23 30,22.5522847 30,22 Z M29.3944109,25.0534198 C29.6102058,24.545039 30.1972661,24.3078512 30.7056469,24.523646 C31.2140277,24.7394409 31.4512155,25.3265012 31.2354206,25.834882 C31.0196258,26.3432628 30.4325655,26.5804506 29.9241847,26.3646557 C29.4158039,26.1488609 29.1786161,25.5618006 29.3944109,25.0534198 Z M27.6568542,27.6568542 C28.0473785,27.26633 28.6805435,27.26633 29.0710678,27.6568542 C29.4615921,28.0473785 29.4615921,28.6805435 29.0710678,29.0710678 C28.6805435,29.4615921 28.0473785,29.4615921 27.6568542,29.0710678 C27.26633,28.6805435 27.26633,28.0473785 27.6568542,27.6568542 Z M25.0695443,29.3877319 C25.5816138,29.1808424 26.1644452,29.4282397 26.3713347,29.9403092 C26.5782243,30.4523787 26.330827,31.0352101 25.8187575,31.2420996 C25.306688,31.4489892 24.7238565,31.2015919 24.516967,30.6895224 C24.3100775,30.1774529 24.5574748,29.5946214 25.0695443,29.3877319 Z M22,30 C22.5522847,30 23,30.4477153 23,31 C23,31.5522847 22.5522847,32 22,32 C21.4477153,32 21,31.5522847 21,31 C21,30.4477153 21.4477153,30 22,30 Z M18.9465802,29.3944109 C19.454961,29.6102058 19.6921488,30.1972661 19.476354,30.7056469 C19.2605591,31.2140277 18.6734988,31.4512155 18.165118,31.2354206 C17.6567372,31.0196258 17.4195494,30.4325655 17.6353443,29.9241847 C17.8511391,29.4158039 18.4381994,29.1786161 18.9465802,29.3944109 Z M16.3431458,27.6568542 C16.73367,28.0473785 16.73367,28.6805435 16.3431458,29.0710678 C15.9526215,29.4615921 15.3194565,29.4615921 14.9289322,29.0710678 C14.5384079,28.6805435 14.5384079,28.0473785 14.9289322,27.6568542 C15.3194565,27.26633 15.9526215,27.26633 16.3431458,27.6568542 Z M14.6055891,25.0534198 C14.8213839,25.5618006 14.5841961,26.1488609 14.0758153,26.3646557 C13.5674345,26.5804506 12.9803742,26.3432628 12.7645794,25.834882 C12.5487845,25.3265012 12.7859723,24.7394409 13.2943531,24.523646 C13.8027339,24.3078512 14.3897942,24.545039 14.6055891,25.0534198 Z M14,22 C14,22.5522847 13.5522847,23 13,23 C12.4477153,23 12,22.5522847 12,22 C12,21.4477153 12.4477153,21 13,21 C13.5522847,21 14,21.4477153 14,22 Z M14.6055891,18.9465802 C14.3897942,19.454961 13.8027339,19.6921488 13.2943531,19.476354 C12.7859723,19.2605591 12.5487845,18.6734988 12.7645794,18.165118 C12.9803742,17.6567372 13.5674345,17.4195494 14.0758153,17.6353443 C14.5841961,17.8511391 14.8213839,18.4381994 14.6055891,18.9465802 Z M16.3431458,16.3431458 C15.9526215,16.73367 15.3194565,16.73367 14.9289322,16.3431458 C14.5384079,15.9526215 14.5384079,15.3194565 14.9289322,14.9289322 C15.3194565,14.5384079 15.9526215,14.5384079 16.3431458,14.9289322 C16.73367,15.3194565 16.73367,15.9526215 16.3431458,16.3431458 Z M18.9304557,14.6122681 C18.4183862,14.8191576 17.8355548,14.5717603 17.6286653,14.0596908 C17.4217757,13.5476213 17.669173,12.9647899 18.1812425,12.7579004 C18.693312,12.5510108 19.2761435,12.7984081 19.483033,13.3104776 C19.6899225,13.8225471 19.4425252,14.4053786 18.9304557,14.6122681 Z" id="Oval-3"></path>
                    <path d="M22,11 C20.8954305,11 20,10.1045695 20,9 C20,7.8954305 20.8954305,7 22,7 C23.1045695,7 24,7.8954305 24,9 C24,10.1045695 23.1045695,11 22,11 Z M26.1934224,11.8305758 C25.1766608,11.3989861 24.7022852,10.2248654 25.1338749,9.20810382 C25.5654646,8.19134224 26.7395853,7.71696668 27.7563469,8.14855637 C28.7731085,8.58014606 29.247484,9.75426675 28.8158943,10.7710283 C28.3843046,11.7877899 27.2101839,12.2621655 26.1934224,11.8305758 Z M29.7781746,14.2218254 C28.997126,13.4407768 28.997126,12.1744469 29.7781746,11.3933983 C30.5592232,10.6123497 31.8255531,10.6123497 32.6066017,11.3933983 C33.3876503,12.1744469 33.3876503,13.4407768 32.6066017,14.2218254 C31.8255531,15.002874 30.5592232,15.002874 29.7781746,14.2218254 Z M32.1560662,17.7743286 C31.7422872,16.7501896 32.2370817,15.5845267 33.2612207,15.1707477 C34.2853597,14.7569687 35.4510226,15.2517632 35.8648016,16.2759022 C36.2785806,17.3000412 35.7837861,18.4657041 34.7596471,18.8794831 C33.7355081,19.2932621 32.5698452,18.7984676 32.1560662,17.7743286 Z M33,22 C33,20.8954305 33.8954305,20 35,20 C36.1045695,20 37,20.8954305 37,22 C37,23.1045695 36.1045695,24 35,24 C33.8954305,24 33,23.1045695 33,22 Z M32.1694242,26.1934224 C32.6010139,25.1766608 33.7751346,24.7022852 34.7918962,25.1338749 C35.8086578,25.5654646 36.2830333,26.7395853 35.8514436,27.7563469 C35.4198539,28.7731085 34.2457333,29.247484 33.2289717,28.8158943 C32.2122101,28.3843046 31.7378345,27.2101839 32.1694242,26.1934224 Z M29.7781746,29.7781746 C30.5592232,28.997126 31.8255531,28.997126 32.6066017,29.7781746 C33.3876503,30.5592232 33.3876503,31.8255531 32.6066017,32.6066017 C31.8255531,33.3876503 30.5592232,33.3876503 29.7781746,32.6066017 C28.997126,31.8255531 28.997126,30.5592232 29.7781746,29.7781746 Z M26.2256714,32.1560662 C27.2498104,31.7422872 28.4154733,32.2370817 28.8292523,33.2612207 C29.2430313,34.2853597 28.7482368,35.4510226 27.7240978,35.8648016 C26.6999588,36.2785806 25.5342959,35.7837861 25.1205169,34.7596471 C24.7067379,33.7355081 25.2015324,32.5698452 26.2256714,32.1560662 Z M22,33 C23.1045695,33 24,33.8954305 24,35 C24,36.1045695 23.1045695,37 22,37 C20.8954305,37 20,36.1045695 20,35 C20,33.8954305 20.8954305,33 22,33 Z M17.8065776,32.1694242 C18.8233392,32.6010139 19.2977148,33.7751346 18.8661251,34.7918962 C18.4345354,35.8086578 17.2604147,36.2830333 16.2436531,35.8514436 C15.2268915,35.4198539 14.752516,34.2457333 15.1841057,33.2289717 C15.6156954,32.2122101 16.7898161,31.7378345 17.8065776,32.1694242 Z M14.2218254,29.7781746 C15.002874,30.5592232 15.002874,31.8255531 14.2218254,32.6066017 C13.4407768,33.3876503 12.1744469,33.3876503 11.3933983,32.6066017 C10.6123497,31.8255531 10.6123497,30.5592232 11.3933983,29.7781746 C12.1744469,28.997126 13.4407768,28.997126 14.2218254,29.7781746 Z M11.8305758,26.1934224 C12.2621655,27.2101839 11.7877899,28.3843046 10.7710283,28.8158943 C9.75426675,29.247484 8.58014606,28.7731085 8.14855637,27.7563469 C7.71696668,26.7395853 8.19134224,25.5654646 9.20810382,25.1338749 C10.2248654,24.7022852 11.3989861,25.1766608 11.8305758,26.1934224 Z M11,22 C11,23.1045695 10.1045695,24 9,24 C7.8954305,24 7,23.1045695 7,22 C7,20.8954305 7.8954305,20 9,20 C10.1045695,20 11,20.8954305 11,22 Z M11.8305758,17.8065776 C11.3989861,18.8233392 10.2248654,19.2977148 9.20810382,18.8661251 C8.19134224,18.4345354 7.71696668,17.2604147 8.14855637,16.2436531 C8.58014606,15.2268915 9.75426675,14.752516 10.7710283,15.1841057 C11.7877899,15.6156954 12.2621655,16.7898161 11.8305758,17.8065776 Z M14.2218254,14.2218254 C13.4407768,15.002874 12.1744469,15.002874 11.3933983,14.2218254 C10.6123497,13.4407768 10.6123497,12.1744469 11.3933983,11.3933983 C12.1744469,10.6123497 13.4407768,10.6123497 14.2218254,11.3933983 C15.002874,12.1744469 15.002874,13.4407768 14.2218254,14.2218254 Z M17.7743286,11.8439338 C16.7501896,12.2577128 15.5845267,11.7629183 15.1707477,10.7387793 C14.7569687,9.71464026 15.2517632,8.54897739 16.2759022,8.13519837 C17.3000412,7.72141935 18.4657041,8.21621388 18.8794831,9.24035289 C19.2932621,10.2644919 18.7984676,11.4301548 17.7743286,11.8439338 Z" id="Oval-3-Copy"></path>
                    <path d="M22,6 C20.3431458,6 19,4.65685425 19,3 C19,1.34314575 20.3431458,0 22,0 C23.6568542,0 25,1.34314575 25,3 C25,4.65685425 23.6568542,6 22,6 Z M28.0987918,7.20780344 C26.5736495,6.56041891 25.8620861,4.79923787 26.5094707,3.2740955 C27.1568552,1.74895312 28.9180362,1.03738979 30.4431786,1.68477432 C31.968321,2.33215885 32.6798843,4.09333989 32.0324998,5.61848227 C31.3851152,7.14362465 29.6239342,7.85518797 28.0987918,7.20780344 Z M33.3137085,10.6862915 C32.1421356,9.51471863 32.1421356,7.61522369 33.3137085,6.44365081 C34.4852814,5.27207794 36.3847763,5.27207794 37.5563492,6.44365081 C38.7279221,7.61522369 38.7279221,9.51471863 37.5563492,10.6862915 C36.3847763,11.8578644 34.4852814,11.8578644 33.3137085,10.6862915 Z M36.7721596,15.8528346 C36.151491,14.3166261 36.8936828,12.5681317 38.4298913,11.9474632 C39.9660998,11.3267947 41.7145942,12.0689865 42.3352627,13.605195 C42.9559312,15.1414035 42.2137394,16.8898978 40.6775309,17.5105663 C39.1413224,18.1312349 37.3928281,17.3890431 36.7721596,15.8528346 Z M38,22 C38,20.3431458 39.3431458,19 41,19 C42.6568542,19 44,20.3431458 44,22 C44,23.6568542 42.6568542,25 41,25 C39.3431458,25 38,23.6568542 38,22 Z M36.7921966,28.0987918 C37.4395811,26.5736495 39.2007621,25.8620861 40.7259045,26.5094707 C42.2510469,27.1568552 42.9626102,28.9180362 42.3152257,30.4431786 C41.6678411,31.968321 39.9066601,32.6798843 38.3815177,32.0324998 C36.8563754,31.3851152 36.144812,29.6239342 36.7921966,28.0987918 Z M33.3137085,33.3137085 C34.4852814,32.1421356 36.3847763,32.1421356 37.5563492,33.3137085 C38.7279221,34.4852814 38.7279221,36.3847763 37.5563492,37.5563492 C36.3847763,38.7279221 34.4852814,38.7279221 33.3137085,37.5563492 C32.1421356,36.3847763 32.1421356,34.4852814 33.3137085,33.3137085 Z M28.1471654,36.7721596 C29.6833739,36.151491 31.4318683,36.8936828 32.0525368,38.4298913 C32.6732053,39.9660998 31.9310135,41.7145942 30.394805,42.3352627 C28.8585965,42.9559312 27.1101022,42.2137394 26.4894337,40.6775309 C25.8687651,39.1413224 26.6109569,37.3928281 28.1471654,36.7721596 Z M22,38 C23.6568542,38 25,39.3431458 25,41 C25,42.6568542 23.6568542,44 22,44 C20.3431458,44 19,42.6568542 19,41 C19,39.3431458 20.3431458,38 22,38 Z M15.9012082,36.7921966 C17.4263505,37.4395811 18.1379139,39.2007621 17.4905293,40.7259045 C16.8431448,42.2510469 15.0819638,42.9626102 13.5568214,42.3152257 C12.031679,41.6678411 11.3201157,39.9066601 11.9675002,38.3815177 C12.6148848,36.8563754 14.3760658,36.144812 15.9012082,36.7921966 Z M10.6862915,33.3137085 C11.8578644,34.4852814 11.8578644,36.3847763 10.6862915,37.5563492 C9.51471863,38.7279221 7.61522369,38.7279221 6.44365081,37.5563492 C5.27207794,36.3847763 5.27207794,34.4852814 6.44365081,33.3137085 C7.61522369,32.1421356 9.51471863,32.1421356 10.6862915,33.3137085 Z M7.20780344,28.0987918 C7.85518797,29.6239342 7.14362465,31.3851152 5.61848227,32.0324998 C4.09333989,32.6798843 2.33215885,31.968321 1.68477432,30.4431786 C1.03738979,28.9180362 1.74895312,27.1568552 3.2740955,26.5094707 C4.79923787,25.8620861 6.56041891,26.5736495 7.20780344,28.0987918 Z M6,22 C6,23.6568542 4.65685425,25 3,25 C1.34314575,25 8.63350357e-17,23.6568542 -2.18024152e-16,22 C-5.2238334e-16,20.3431458 1.34314575,19 3,19 C4.65685425,19 6,20.3431458 6,22 Z M7.20780344,15.9012082 C6.56041891,17.4263505 4.79923787,18.1379139 3.2740955,17.4905293 C1.74895312,16.8431448 1.03738979,15.0819638 1.68477432,13.5568214 C2.33215885,12.031679 4.09333989,11.3201157 5.61848227,11.9675002 C7.14362465,12.6148848 7.85518797,14.3760658 7.20780344,15.9012082 Z M10.6862915,10.6862915 C9.51471863,11.8578644 7.61522369,11.8578644 6.44365081,10.6862915 C5.27207794,9.51471863 5.27207794,7.61522369 6.44365081,6.44365081 C7.61522369,5.27207794 9.51471863,5.27207794 10.6862915,6.44365081 C11.8578644,7.61522369 11.8578644,9.51471863 10.6862915,10.6862915 Z M15.8528346,7.22784045 C14.3166261,7.84850897 12.5681317,7.10631717 11.9474632,5.57010866 C11.3267947,4.03390015 12.0689865,2.28540584 13.605195,1.66473732 C15.1414035,1.04406879 16.8898978,1.78626059 17.5105663,3.3224691 C18.1312349,4.85867761 17.3890431,6.60717192 15.8528346,7.22784045 Z" id="Oval-3-Copy-2"></path>
                </g>
            </g>
        </g>
    </g>
</svg>